<?xml version="1.0" ?><svg style="enable-background:new 0 0 100 100;" version="1.1" viewBox="0 0 100 100" xml:space="preserve" xmlns="http://www.w3.org/2000/svg" xmlns:xlink="http://www.w3.org/1999/xlink"><g id="hairdryer"/><g id="scissor"/><g id="razor"/><g id="razor_blade_1_"/><g id="comb"/><g id="shaving_machine"/><g id="barbershop"/><g id="barber_pole"/><g id="hairstylist"/><g id="kids"/><g id="mature"/><g id="woman"/><g id="moustache"/><g id="hair_gel"/><g id="shampoo"/><g id="mirror"/><g id="spray"/><g id="apron"/><g id="chair"><g><path d="M85,35h-6c-1.7,0-3,1.3-3,3v2c0,1.7,1.3,3,3,3v10c0,0.6-0.4,1-1,1h-1v-2c0-1.7-1.3-3-3-3h-0.9l5.7-32    c0.6-3.2-0.3-6.5-2.4-9C74.3,5.4,71.2,4,68,4H32c-3.3,0-6.3,1.4-8.4,3.9c-2.1,2.5-3,5.8-2.4,9l5.7,32H26c-1.7,0-3,1.3-3,3v2h-1    c-0.6,0-1-0.4-1-1V43c1.7,0,3-1.3,3-3v-2c0-1.7-1.3-3-3-3h-6c-1.7,0-3,1.3-3,3v2c0,1.7,1.3,3,3,3v12c0,2.8,2.2,5,5,5h3v2    c0,1.7,1.3,3,3,3h7v11.2c-1.2,0.4-2,1.5-2,2.8v2c0,1.7,1.3,3,3,3h9v3h-5c-4.4,0-8,3.6-8,8c0,0.6,0.4,1,1,1h38c0.6,0,1-0.4,1-1    c0-4.4-3.6-8-8-8h-5v-3h9c1.7,0,3-1.3,3-3v-2c0-1.3-0.8-2.4-2-2.8V65h7c1.7,0,3-1.3,3-3v-2h3c2.8,0,5-2.2,5-5V43c1.7,0,3-1.3,3-3    v-2C88,36.3,86.7,35,85,35z M23.1,16.6c-0.5-2.6,0.3-5.3,2-7.4C26.8,7.2,29.3,6,32,6h36c2.7,0,5.2,1.2,6.9,3.2    c1.7,2.1,2.4,4.8,2,7.4L71.1,49H28.9L23.1,16.6z M14,40v-2c0-0.6,0.4-1,1-1h6c0.6,0,1,0.4,1,1v2c0,0.6-0.4,1-1,1h-1h-4h-1    C14.4,41,14,40.6,14,40z M20,58c-1.7,0-3-1.3-3-3V43h2v10c0,1.7,1.3,3,3,3h1v2H20z M43,65v11h-4V65H43z M61,65v11h-4V65H61z     M55,76H45V65h10V76z M37,76h-2V65h2V76z M67.9,94H32.1c0.5-2.8,2.9-5,5.9-5h6h12h6C65,89,67.4,91.2,67.9,94z M55,87H45v-3h10V87z     M67,81c0,0.6-0.4,1-1,1H34c-0.6,0-1-0.4-1-1v-2c0-0.6,0.4-1,1-1h4h24h4c0.6,0,1,0.4,1,1V81z M65,76h-2V65h2V76z M75,62    c0,0.6-0.4,1-1,1h-8h-4h-6H44h-6h-4h-8c-0.6,0-1-0.4-1-1v-3v-4v-3c0-0.6,0.4-1,1-1h2H72h2c0.6,0,1,0.4,1,1v3v4V62z M83,55    c0,1.7-1.3,3-3,3h-3v-2h1c1.7,0,3-1.3,3-3V43h2V55z M86,40c0,0.6-0.4,1-1,1h-1h-4h-1c-0.6,0-1-0.4-1-1v-2c0-0.6,0.4-1,1-1h6    c0.6,0,1,0.4,1,1V40z"/><path d="M50,9c-0.6,0-1,0.4-1,1v34c0,0.6,0.4,1,1,1s1-0.4,1-1V10C51,9.4,50.6,9,50,9z"/><path d="M31.8,13c-0.5,0.1-0.9,0.6-0.8,1.2l5,30c0.1,0.5,0.5,0.8,1,0.8c0.1,0,0.1,0,0.2,0c0.5-0.1,0.9-0.6,0.8-1.2l-5-30    C32.9,13.3,32.4,12.9,31.8,13z"/><path d="M68.2,13c-0.5-0.1-1.1,0.3-1.2,0.8l-5,30c-0.1,0.5,0.3,1.1,0.8,1.2c0.1,0,0.1,0,0.2,0c0.5,0,0.9-0.3,1-0.8l5-30    C69.1,13.6,68.7,13.1,68.2,13z"/></g></g><g id="mask"/></svg>